<?xml version="1.0" encoding="utf-8"?>
<!-- Generator: Adobe Illustrator 16.0.0, SVG Export Plug-In . SVG Version: 6.00 Build 0)  -->
<!DOCTYPE svg PUBLIC "-//W3C//DTD SVG 1.1//EN" "http://www.w3.org/Graphics/SVG/1.1/DTD/svg11.dtd">
<svg version="1.1" id="Layer_1" xmlns="http://www.w3.org/2000/svg" xmlns:xlink="http://www.w3.org/1999/xlink" x="0px" y="0px"
	 width="252px" height="20px" viewBox="0 0 252 20" enable-background="new 0 0 252 20" xml:space="preserve">
<title>mindmeet_Logo</title>
<desc>Created with Sketch.</desc>
<g id="Page-1">
	<g id="mindmeet_Logo">
		<path id="mindmeet" fill="#FFFFFF" d="M73.359,17.529c0,0.285,0.233,0.518,0.519,0.518s0.518-0.232,0.518-0.518V1.977
			c0-0.285-0.233-0.519-0.518-0.519c-0.182,0-0.311,0.104-0.415,0.208l-8.657,8.657l-8.657-8.657
			c-0.129-0.129-0.259-0.208-0.415-0.208c-0.285,0-0.519,0.233-0.519,0.519v15.553c0,0.285,0.233,0.518,0.519,0.518
			s0.518-0.232,0.518-0.518V3.221l8.139,8.139c0.104,0.104,0.233,0.207,0.415,0.207c0.156,0,0.285-0.077,0.415-0.207l8.139-8.139
			V17.529z M86.319,17.529c0,0.285,0.233,0.518,0.519,0.518s0.518-0.232,0.518-0.518V1.977c0-0.285-0.233-0.519-0.518-0.519
			s-0.519,0.233-0.519,0.519V17.529z M99.279,17.529c0,0.285,0.233,0.518,0.519,0.518s0.519-0.232,0.519-0.518V3.221l14.619,14.619
			c0.104,0.104,0.233,0.207,0.415,0.207c0.285,0,0.519-0.232,0.519-0.518V1.977c0-0.285-0.233-0.519-0.519-0.519
			s-0.518,0.233-0.518,0.519v14.309l-14.619-14.62c-0.129-0.129-0.259-0.208-0.415-0.208c-0.285,0-0.519,0.233-0.519,0.519V17.529z
			 M127.791,17.529V1.977c0-0.285,0.232-0.519,0.518-0.519h6.48c4.588,0,8.295,3.707,8.295,8.294s-3.707,8.294-8.295,8.294h-6.48
			C128.023,18.047,127.791,17.814,127.791,17.529z M142.047,9.752c0-4.018-3.24-7.257-7.258-7.257h-5.961V17.01h6.014
			C138.833,16.984,142.047,13.771,142.047,9.752z M172.373,17.529c0,0.285,0.233,0.518,0.519,0.518s0.519-0.232,0.519-0.518V1.977
			c0-0.285-0.233-0.519-0.519-0.519c-0.181,0-0.312,0.104-0.415,0.208l-8.656,8.657l-8.658-8.657
			c-0.129-0.129-0.259-0.208-0.414-0.208c-0.285,0-0.519,0.233-0.519,0.519v15.553c0,0.285,0.233,0.518,0.519,0.518
			s0.518-0.232,0.518-0.518V3.221l8.139,8.139c0.104,0.104,0.234,0.207,0.416,0.207c0.154,0,0.285-0.077,0.414-0.207l8.139-8.139
			V17.529z M185.334,17.529c0,0.285,0.232,0.518,0.518,0.518h12.96c0.285,0,0.519-0.232,0.519-0.518s-0.233-0.52-0.519-0.52H186.37
			v-6.739h9.85c0.285,0,0.519-0.233,0.519-0.519c0-0.285-0.233-0.518-0.519-0.518h-9.85V2.495h12.441
			c0.285,0,0.519-0.233,0.519-0.519s-0.233-0.519-0.519-0.519h-12.96c-0.285,0-0.518,0.233-0.518,0.519V17.529z M210.734,17.529
			c0,0.285,0.234,0.518,0.52,0.518h12.959c0.285,0,0.519-0.232,0.519-0.518s-0.233-0.52-0.519-0.52h-12.441v-6.739h9.85
			c0.285,0,0.519-0.233,0.519-0.519c0-0.285-0.233-0.518-0.519-0.518h-9.85V2.495h12.441c0.285,0,0.519-0.233,0.519-0.519
			s-0.233-0.519-0.519-0.519h-12.959c-0.285,0-0.52,0.233-0.52,0.519V17.529z M242.875,17.529c0,0.285,0.234,0.518,0.52,0.518
			s0.518-0.232,0.518-0.518V2.495h7.258c0.285,0,0.519-0.233,0.519-0.519s-0.233-0.519-0.519-0.519h-15.552
			c-0.285,0-0.519,0.233-0.519,0.519s0.233,0.519,0.519,0.519h7.257V17.529z"/>
		<path id="Shape" fill="#FFFFFF" d="M23.979,0c-2.713,0.001-5.171,1.077-6.977,2.821c-1.805-1.744-4.263-2.819-6.976-2.82
			C4.488,0.002,0.001,4.478,0,10c0.001,5.523,4.488,10,10.027,10c2.712,0,5.171-1.076,6.976-2.82c1.805,1.744,4.263,2.82,6.976,2.82
			C29.517,19.998,34,15.522,34,10.001C34,4.477,29.517,0.001,23.979,0z M17.003,14.443c-0.823-1.283-1.304-2.807-1.306-4.442
			c0.002-1.638,0.483-3.161,1.307-4.443C17.827,6.84,18.308,8.363,18.311,10C18.307,11.637,17.826,13.16,17.003,14.443z M1.745,10
			c0.008-4.562,3.708-8.253,8.283-8.26c2.275,0.004,4.333,0.919,5.83,2.4c-1.196,1.646-1.905,3.67-1.905,5.861
			c0,2.188,0.709,4.212,1.905,5.858c-1.496,1.481-3.555,2.396-5.83,2.4C5.453,18.252,1.752,14.562,1.745,10z M23.979,18.261
			c-2.275-0.005-4.334-0.92-5.83-2.4c1.197-1.647,1.905-3.671,1.906-5.86c-0.001-2.19-0.709-4.213-1.906-5.86
			c1.496-1.48,3.555-2.396,5.83-2.4c4.574,0.008,8.272,3.699,8.28,8.261C32.251,14.562,28.553,18.253,23.979,18.261z"/>
	</g>
</g>
</svg>
